<mxfile host="Electron" agent="Mozilla/5.0 (Macintosh; Intel Mac OS X 10_15_7) AppleWebKit/537.36 (KHTML, like Gecko) draw.io/25.0.2 Chrome/128.0.6613.186 Electron/32.2.5 Safari/537.36" version="25.0.2">
  <diagram name="Real-Time ML Inference Architecture" id="ml-inference">
    <mxGraphModel dx="1026" dy="743" grid="0" gridSize="10" guides="1" tooltips="1" connect="1" arrows="1" fold="1" page="0" pageScale="1" pageWidth="827" pageHeight="1169" math="0" shadow="0">
      <root>
        <mxCell id="0" />
        <mxCell id="1" parent="0" />
        <mxCell id="10" value="" style="swimlane" parent="1" vertex="1">
          <mxGeometry x="20" y="20" width="780" height="600" as="geometry" />
        </mxCell>
        <mxCell id="11" value="Namespace: ml-inference" style="text;html=1;strokeColor=none;fillColor=none;align=center;" parent="10" vertex="1">
          <mxGeometry x="10" width="200" height="30" as="geometry" />
        </mxCell>
        <mxCell id="20" value="Ingress Controller" style="shape=process;fillColor=#dae8fc;" parent="10" vertex="1">
          <mxGeometry x="300" y="40" width="180" height="60" as="geometry" />
        </mxCell>
        <mxCell id="30" value="Inference API (Deployment)" style="shape=process;fillColor=#d5e8d4;" parent="10" vertex="1">
          <mxGeometry x="290" y="210" width="200" height="60" as="geometry" />
        </mxCell>
        <mxCell id="40" value="Redis (StatefulSet)" style="shape=process;fillColor=#ffe6cc;" parent="10" vertex="1">
          <mxGeometry x="290" y="399.48" width="200" height="60" as="geometry" />
        </mxCell>
        <mxCell id="50" value="PVC + PV" style="shape=cylinder;fillColor=#fff2cc;" parent="10" vertex="1">
          <mxGeometry x="370" y="504.48" width="120" height="40" as="geometry" />
        </mxCell>
        <mxCell id="60" value="ConfigMap + Secret" style="shape=note;fillColor=#e1d5e7;" parent="10" vertex="1">
          <mxGeometry x="60" y="215" width="170" height="50" as="geometry" />
        </mxCell>
        <mxCell id="70" value="ConfigMap + Secret" style="shape=note;fillColor=#e1d5e7;" parent="10" vertex="1">
          <mxGeometry x="540" y="404.48" width="170" height="50" as="geometry" />
        </mxCell>
        <mxCell id="80" value="Network Policy" style="shape=hexagon;fillColor=#f8cecc;" parent="10" vertex="1">
          <mxGeometry x="210" y="494.48" width="140" height="60" as="geometry" />
        </mxCell>
        <mxCell id="90" value="Service: inference-service" style="ellipse;fillColor=#f5f5f5;" parent="10" vertex="1">
          <mxGeometry x="300" y="140" width="180" height="40" as="geometry" />
        </mxCell>
        <mxCell id="100" value="Service: redis-service" style="ellipse;fillColor=#f5f5f5;" parent="10" vertex="1">
          <mxGeometry x="300" y="320" width="180" height="40" as="geometry" />
        </mxCell>
        <mxCell id="201" style="endArrow=block;exitX=0.5;exitY=1;exitDx=0;exitDy=0;comic=0;enumerate=0;orthogonal=0;orthogonalLoop=0;ignoreEdge=0;noJump=0;deletable=1;cloneable=1;strokeOpacity=100;" parent="10" source="20" target="90" edge="1">
          <mxGeometry relative="1" as="geometry">
            <mxPoint x="400" y="130" as="sourcePoint" />
          </mxGeometry>
        </mxCell>
        <mxCell id="202" style="endArrow=block" parent="10" source="90" target="30" edge="1">
          <mxGeometry relative="1" as="geometry" />
        </mxCell>
        <mxCell id="203" style="endArrow=block" parent="10" source="30" target="100" edge="1">
          <mxGeometry relative="1" as="geometry" />
        </mxCell>
        <mxCell id="204" style="endArrow=block;exitX=0.5;exitY=1;exitDx=0;exitDy=0;" parent="10" source="100" target="40" edge="1">
          <mxGeometry relative="1" as="geometry">
            <mxPoint x="353.95671985821537" y="393.00184719539016" as="sourcePoint" />
          </mxGeometry>
        </mxCell>
        <mxCell id="205" style="endArrow=block;dashed=1;orthogonalLoop=0;backgroundOutline=0;noJump=0;arcSize=20;snapToPoint=0;fixDash=0;" parent="10" source="80" target="40" edge="1">
          <mxGeometry relative="1" as="geometry" />
        </mxCell>
        <mxCell id="206" style="endArrow=block" parent="10" source="50" target="40" edge="1">
          <mxGeometry relative="1" as="geometry" />
        </mxCell>
        <mxCell id="207" style="endArrow=block" parent="10" source="60" target="30" edge="1">
          <mxGeometry relative="1" as="geometry" />
        </mxCell>
        <mxCell id="208" style="endArrow=block" parent="10" source="70" target="40" edge="1">
          <mxGeometry relative="1" as="geometry" />
        </mxCell>
      </root>
    </mxGraphModel>
  </diagram>
</mxfile>
